<?xml version="1.0" encoding="UTF-8" standalone="no"?>
<!--
  Nix Snowflake - Sweden colourway
  Derived from the NixOS logo (nix-snowflake-colours.svg), (c) the NixOS project,
  licensed CC BY 4.0 - https://creativecommons.org/licenses/by/4.0/
  Changes: gradient fills recoloured to the Swedish flag palette
  (blue #006AA7, yellow #FECC00); <use> elements flattened to paths.
  Geometry is unmodified.
-->
<svg width="535" height="535" viewBox="0 0 501.56251 501.56249"
     version="1.1" xmlns="http://www.w3.org/2000/svg">
  <title>Nix Snowflake - Sweden colourway</title>
  <defs>
    <linearGradient id="gradYellow" gradientUnits="userSpaceOnUse"
       gradientTransform="translate(70.650339,-1055.1511)"
       x1="200.59668" y1="351.41116" x2="290.08701" y2="506.18814">
      <stop offset="0"    stop-color="#e0b400" />
      <stop offset="0.24" stop-color="#efc000" />
      <stop offset="1"    stop-color="#fecc00" />
    </linearGradient>
    <linearGradient id="gradBlue" gradientUnits="userSpaceOnUse"
       gradientTransform="translate(864.69589,-1491.3405)"
       x1="-584.19934" y1="782.33563" x2="-496.29703" y2="937.71399">
      <stop offset="0"    stop-color="#005484" />
      <stop offset="0.23" stop-color="#005e94" />
      <stop offset="1"    stop-color="#006aa7" />
    </linearGradient>
  </defs>
  <g transform="translate(-156.41121,933.30685)">
    <g transform="matrix(0.99994059,0,0,0.99994059,-0.06321798,33.188377)">
      <path d="m 309.54892,-710.38827 122.19683,211.67512 -56.15706,0.5268 -32.6236,-56.8692 -32.85645,56.5653 -27.90237,-0.011 -14.29086,-24.6896 46.81047,-80.4901 -33.22946,-57.8257 z"
            fill="url(#gradBlue)" fill-rule="evenodd" />
      <path transform="rotate(60,407.11155,-715.78724)" d="m 309.54892,-710.38827 122.19683,211.67512 -56.15706,0.5268 -32.6236,-56.8692 -32.85645,56.5653 -27.90237,-0.011 -14.29086,-24.6896 46.81047,-80.4901 -33.22946,-57.8257 z"
            fill="url(#gradYellow)" fill-rule="evenodd" />
      <path transform="rotate(-60,407.31177,-715.70016)" d="m 309.54892,-710.38827 122.19683,211.67512 -56.15706,0.5268 -32.6236,-56.8692 -32.85645,56.5653 -27.90237,-0.011 -14.29086,-24.6896 46.81047,-80.4901 -33.22946,-57.8257 z"
            fill="url(#gradYellow)" fill-rule="evenodd" />
      <path transform="rotate(180,407.41868,-715.7565)" d="m 309.54892,-710.38827 122.19683,211.67512 -56.15706,0.5268 -32.6236,-56.8692 -32.85645,56.5653 -27.90237,-0.011 -14.29086,-24.6896 46.81047,-80.4901 -33.22946,-57.8257 z"
            fill="url(#gradYellow)" fill-rule="evenodd" />
      <path transform="rotate(120,407.33916,-716.08356)" d="m 309.54892,-710.38827 122.19683,211.67512 -56.15706,0.5268 -32.6236,-56.8692 -32.85645,56.5653 -27.90237,-0.011 -14.29086,-24.6896 46.81047,-80.4901 -33.22946,-57.8257 z"
            fill="url(#gradBlue)" fill-rule="evenodd" />
      <path transform="rotate(-120,407.28823,-715.86995)" d="m 309.54892,-710.38827 122.19683,211.67512 -56.15706,0.5268 -32.6236,-56.8692 -32.85645,56.5653 -27.90237,-0.011 -14.29086,-24.6896 46.81047,-80.4901 -33.22946,-57.8257 z"
            fill="url(#gradBlue)" fill-rule="evenodd" />
    </g>
  </g>
</svg>
